<?xml version="1.0" standalone="no"?><!DOCTYPE svg PUBLIC "-//W3C//DTD SVG 1.1//EN" "http://www.w3.org/Graphics/SVG/1.1/DTD/svg11.dtd"><svg class="icon" width="200px" height="200.00px" viewBox="0 0 1024 1024" version="1.1" xmlns="http://www.w3.org/2000/svg"><path fill="#ffffff" d="M512 288.61635c61.673641 0 111.676475-49.997718 111.676475-111.665219 0-61.684898-50.003857-111.682615-111.676475-111.682615-61.678758 0-111.676475 49.997718-111.676475 111.682615C400.323525 238.618633 450.321242 288.61635 512 288.61635zM512 400.296919c-61.678758 0-111.676475 49.997718-111.676475 111.681592 0 61.667501 49.997718 111.676475 111.676475 111.676475 61.673641 0 111.676475-50.008974 111.676475-111.676475C623.677499 450.294636 573.673641 400.296919 512 400.296919zM512 735.333508c-61.678758 0-111.676475 49.997718-111.676475 111.676475 0 61.678758 49.997718 111.676475 111.676475 111.676475 61.673641 0 111.676475-49.997718 111.676475-111.676475C623.677499 785.331225 573.673641 735.333508 512 735.333508z" /></svg>