<?xml version="1.0" standalone="no"?><!DOCTYPE svg PUBLIC "-//W3C//DTD SVG 1.1//EN" "http://www.w3.org/Graphics/SVG/1.1/DTD/svg11.dtd"><svg class="icon" width="200px" height="167.18px" viewBox="0 0 1225 1024" version="1.1" xmlns="http://www.w3.org/2000/svg"><path fill="#ffffff" d="M1123.591022 383.042394h102.144639v334.523691c0 168.538653-137.895262 306.433915-306.433915 306.433915H306.433915c-168.538653 0-306.433915-137.895262-306.433915-306.433915V383.042394h102.144638v283.451372c0 140.448878 114.912718 255.361596 255.361596 255.361596h510.723192c140.448878 0 255.361596-114.912718 255.361596-255.361596V383.042394z"  /><path fill="#ffffff" d="M408.578554 0h408.578553c112.359102 0 204.289277 91.930175 204.289277 204.289277v408.578553c0 112.359102-91.930175 204.289277-204.289277 204.289277H408.578554c-112.359102 0-204.289277-91.930175-204.289277-204.289277V204.289277c0-112.359102 91.930175-204.289277 204.289277-204.289277z"  /></svg>